<svg width="151" height="141" viewBox="0 0 151 141" fill="none" xmlns="http://www.w3.org/2000/svg">
<path d="M107.532 51.6874C108.531 51.573 109.44 52.2909 109.5 53.2954C109.913 60.11 108.268 66.9073 104.757 72.7952C100.935 79.206 95.1127 84.1839 88.1859 86.9636C81.2591 89.7433 73.611 90.171 66.4175 88.1808C59.2239 86.1907 52.8832 81.8929 48.3701 75.9482C43.857 70.0035 41.4213 62.741 41.4376 55.2773C41.4539 47.8136 43.9212 40.5618 48.4602 34.6368C52.9991 28.7119 59.3586 24.4418 66.5607 22.483C73.1755 20.684 80.1648 20.9261 86.618 23.1546C87.5691 23.483 88.0165 24.5508 87.6377 25.4831C87.2588 26.4153 86.1974 26.8584 85.2442 26.536C79.5328 24.6046 73.3612 24.4099 67.517 25.9993C61.0854 27.7485 55.4063 31.5618 51.3529 36.8529C47.2995 42.144 45.0961 48.62 45.0816 55.2852C45.0671 61.9505 47.2422 68.436 51.2725 73.7447C55.3028 79.0535 60.9652 82.8915 67.3891 84.6687C73.8131 86.446 80.643 86.0641 86.8287 83.5817C93.0145 81.0994 98.2137 76.654 101.627 70.9291C104.729 65.7271 106.2 59.7302 105.874 53.7099C105.82 52.7051 106.532 51.8018 107.532 51.6874Z" fill="white"/>
<path fill-rule="evenodd" clip-rule="evenodd" d="M99.9375 27.5469C99.9375 26.4423 99.0421 25.5469 97.9375 25.5469C96.8329 25.5469 95.9375 26.4423 95.9375 27.5469V32.6172H90.2734C89.1689 32.6172 88.2734 33.5126 88.2734 34.6172C88.2734 35.7218 89.1689 36.6172 90.2734 36.6172H95.9375V42.2812C95.9375 43.3858 96.8329 44.2812 97.9375 44.2812C99.0421 44.2812 99.9375 43.3858 99.9375 42.2812L99.9375 36.6172H105.008C106.112 36.6172 107.008 35.7218 107.008 34.6172C107.008 33.5126 106.112 32.6172 105.008 32.6172H99.9375V27.5469Z" fill="#01C246"/>
<path d="M75.3325 73.2344C74.7884 73.2344 74.3432 73.0463 73.9969 72.6702C73.6506 72.3192 73.4775 71.8805 73.4775 71.354V68.7966C71.9688 68.6963 70.6208 68.4581 69.4336 68.082C68.2711 67.6809 67.2694 67.2421 66.4285 66.7657C65.8596 66.4398 65.501 66.001 65.3526 65.4494C65.2289 64.8978 65.266 64.3713 65.4639 63.8699C65.6618 63.3684 65.9957 63.0174 66.4656 62.8168C66.9355 62.6163 67.492 62.704 68.1351 63.0801C68.8276 63.4813 69.7304 63.8699 70.8434 64.246C71.9811 64.597 73.3415 64.7725 74.9244 64.7725C76.7794 64.7725 78.115 64.4465 78.9312 63.7947C79.7474 63.1177 80.1555 62.2778 80.1555 61.2749C80.1555 60.4475 79.8711 59.7706 79.3022 59.244C78.7333 58.7175 77.7193 58.2913 76.26 57.9654L72.3274 57.1004C67.8507 56.1225 65.6123 53.7407 65.6123 49.9548C65.6123 47.8487 66.3172 46.0811 67.727 44.652C69.1615 43.1978 71.0784 42.3202 73.4775 42.0194V39.3492C73.4775 38.8227 73.6506 38.3839 73.9969 38.0329C74.3432 37.6568 74.7884 37.4688 75.3325 37.4688C75.8519 37.4688 76.2847 37.6568 76.631 38.0329C77.002 38.3839 77.1875 38.8227 77.1875 39.3492V41.9818C78.1768 42.0821 79.2156 42.3202 80.3039 42.6963C81.4169 43.0724 82.3815 43.5864 83.1977 44.2383C83.6676 44.6144 83.9397 45.0531 84.0139 45.5546C84.0881 46.0309 84.0015 46.4822 83.7542 46.9085C83.5316 47.3096 83.173 47.5854 82.6783 47.7359C82.2084 47.8612 81.6519 47.7359 81.0088 47.3598C80.2915 46.9335 79.4877 46.5951 78.5973 46.3443C77.7069 46.0685 76.6434 45.9306 75.4067 45.9306C73.8238 45.9306 72.5747 46.2942 71.6596 47.0213C70.7692 47.7233 70.324 48.651 70.324 49.8043C70.324 50.6568 70.5961 51.3463 71.1402 51.8728C71.6843 52.3742 72.6118 52.7754 73.9227 53.0763L77.9666 53.9789C80.341 54.5054 82.0847 55.3453 83.1977 56.4986C84.3107 57.6269 84.8672 59.1187 84.8672 60.974C84.8672 63.0801 84.1499 64.8101 82.7154 66.164C81.3056 67.4928 79.463 68.3327 77.1875 68.6838V71.354C77.1875 71.8805 77.0144 72.3192 76.6681 72.6702C76.3218 73.0463 75.8766 73.2344 75.3325 73.2344Z" fill="white"/>
<path d="M16.608 100.536V104.92H7.456V109.656H14.304V113.912H7.456V123H1.984V100.536H16.608ZM22.236 103.288C21.276 103.288 20.4867 103.011 19.868 102.456C19.2707 101.88 18.972 101.176 18.972 100.344C18.972 99.4907 19.2707 98.7867 19.868 98.232C20.4867 97.656 21.276 97.368 22.236 97.368C23.1747 97.368 23.9427 97.656 24.54 98.232C25.1587 98.7867 25.468 99.4907 25.468 100.344C25.468 101.176 25.1587 101.88 24.54 102.456C23.9427 103.011 23.1747 103.288 22.236 103.288ZM24.956 105.144V123H19.484V105.144H24.956ZM39.8015 104.952C41.8922 104.952 43.5562 105.635 44.7935 107C46.0522 108.344 46.6815 110.2 46.6815 112.568V123H41.2415V113.304C41.2415 112.109 40.9322 111.181 40.3135 110.52C39.6948 109.859 38.8628 109.528 37.8175 109.528C36.7722 109.528 35.9402 109.859 35.3215 110.52C34.7028 111.181 34.3935 112.109 34.3935 113.304V123H28.9215V105.144H34.3935V107.512C34.9482 106.723 35.6948 106.104 36.6335 105.656C37.5722 105.187 38.6282 104.952 39.8015 104.952ZM49.396 114.04C49.396 112.205 49.7373 110.595 50.42 109.208C51.124 107.821 52.0733 106.755 53.268 106.008C54.4627 105.261 55.796 104.888 57.268 104.888C58.5267 104.888 59.6253 105.144 60.564 105.656C61.524 106.168 62.26 106.84 62.772 107.672V105.144H68.244V123H62.772V120.472C62.2387 121.304 61.492 121.976 60.532 122.488C59.5933 123 58.4947 123.256 57.236 123.256C55.7853 123.256 54.4627 122.883 53.268 122.136C52.0733 121.368 51.124 120.291 50.42 118.904C49.7373 117.496 49.396 115.875 49.396 114.04ZM62.772 114.072C62.772 112.707 62.388 111.629 61.62 110.84C60.8733 110.051 59.956 109.656 58.868 109.656C57.78 109.656 56.852 110.051 56.084 110.84C55.3373 111.608 54.964 112.675 54.964 114.04C54.964 115.405 55.3373 116.493 56.084 117.304C56.852 118.093 57.78 118.488 58.868 118.488C59.956 118.488 60.8733 118.093 61.62 117.304C62.388 116.515 62.772 115.437 62.772 114.072ZM83.0828 104.952C85.1734 104.952 86.8374 105.635 88.0748 107C89.3334 108.344 89.9628 110.2 89.9628 112.568V123H84.5228V113.304C84.5228 112.109 84.2134 111.181 83.5948 110.52C82.9761 109.859 82.1441 109.528 81.0988 109.528C80.0534 109.528 79.2214 109.859 78.6028 110.52C77.9841 111.181 77.6748 112.109 77.6748 113.304V123H72.2028V105.144H77.6748V107.512C78.2294 106.723 78.9761 106.104 79.9148 105.656C80.8534 105.187 81.9094 104.952 83.0828 104.952ZM92.6773 114.072C92.6773 112.216 93.0506 110.595 93.7973 109.208C94.5653 107.821 95.6213 106.755 96.9653 106.008C98.3306 105.261 99.8879 104.888 101.637 104.888C103.877 104.888 105.744 105.475 107.237 106.648C108.752 107.821 109.744 109.475 110.213 111.608H104.389C103.899 110.243 102.949 109.56 101.541 109.56C100.539 109.56 99.7386 109.955 99.1413 110.744C98.5439 111.512 98.2453 112.621 98.2453 114.072C98.2453 115.523 98.5439 116.643 99.1413 117.432C99.7386 118.2 100.539 118.584 101.541 118.584C102.949 118.584 103.899 117.901 104.389 116.536H110.213C109.744 118.627 108.752 120.269 107.237 121.464C105.723 122.659 103.856 123.256 101.637 123.256C99.8879 123.256 98.3306 122.883 96.9653 122.136C95.6213 121.389 94.5653 120.323 93.7973 118.936C93.0506 117.549 92.6773 115.928 92.6773 114.072ZM129.972 113.784C129.972 114.296 129.94 114.829 129.876 115.384H117.492C117.578 116.493 117.93 117.347 118.548 117.944C119.188 118.52 119.967 118.808 120.884 118.808C122.25 118.808 123.199 118.232 123.732 117.08H129.556C129.258 118.253 128.714 119.309 127.924 120.248C127.156 121.187 126.186 121.923 125.012 122.456C123.839 122.989 122.527 123.256 121.076 123.256C119.327 123.256 117.77 122.883 116.404 122.136C115.039 121.389 113.972 120.323 113.204 118.936C112.436 117.549 112.052 115.928 112.052 114.072C112.052 112.216 112.426 110.595 113.172 109.208C113.94 107.821 115.007 106.755 116.372 106.008C117.738 105.261 119.306 104.888 121.076 104.888C122.804 104.888 124.34 105.251 125.684 105.976C127.028 106.701 128.074 107.736 128.82 109.08C129.588 110.424 129.972 111.992 129.972 113.784ZM124.372 112.344C124.372 111.405 124.052 110.659 123.412 110.104C122.772 109.549 121.972 109.272 121.012 109.272C120.095 109.272 119.316 109.539 118.676 110.072C118.058 110.605 117.674 111.363 117.524 112.344H124.372ZM140.123 123.256C138.566 123.256 137.179 122.989 135.963 122.456C134.747 121.923 133.787 121.197 133.083 120.28C132.379 119.341 131.984 118.296 131.899 117.144H137.307C137.371 117.763 137.659 118.264 138.171 118.648C138.683 119.032 139.312 119.224 140.059 119.224C140.742 119.224 141.264 119.096 141.627 118.84C142.011 118.563 142.203 118.211 142.203 117.784C142.203 117.272 141.936 116.899 141.403 116.664C140.87 116.408 140.006 116.131 138.811 115.832C137.531 115.533 136.464 115.224 135.611 114.904C134.758 114.563 134.022 114.04 133.403 113.336C132.784 112.611 132.475 111.64 132.475 110.424C132.475 109.4 132.752 108.472 133.307 107.64C133.883 106.787 134.715 106.115 135.803 105.624C136.912 105.133 138.224 104.888 139.739 104.888C141.979 104.888 143.739 105.443 145.019 106.552C146.32 107.661 147.067 109.133 147.259 110.968H142.203C142.118 110.349 141.84 109.859 141.371 109.496C140.923 109.133 140.326 108.952 139.579 108.952C138.939 108.952 138.448 109.08 138.107 109.336C137.766 109.571 137.595 109.901 137.595 110.328C137.595 110.84 137.862 111.224 138.395 111.48C138.95 111.736 139.803 111.992 140.955 112.248C142.278 112.589 143.355 112.931 144.187 113.272C145.019 113.592 145.744 114.125 146.363 114.872C147.003 115.597 147.334 116.579 147.355 117.816C147.355 118.861 147.056 119.8 146.459 120.632C145.883 121.443 145.04 122.083 143.931 122.552C142.843 123.021 141.574 123.256 140.123 123.256Z" fill="white"/>
</svg>
